# xmcd
#
# Track frame offsets:
#	150
#	42235
#	83491
#	114002
#	139228
#	173608
#	193221
#	213591
#	238253
#	270699
#	287076
#
# Disc length: 4314 seconds
#
# Revision: 0
# Processed by: cddbd v1.5.2PL0 Copyright (c) Steve Scherf et al.
# Submitted via: audiograbber 1.83.01
#
DISCID=9c10d80b
DTITLE=Britten - Britten At Aldeburgh Vol. 1
DYEAR=2000
DGENRE=Classical
TTITLE0=Allegro
TTITLE1=Andante
TTITLE2=Rondeau - Allegretto
TTITLE3=Allegro di molto
TTITLE4=Adagio, ma semplicemente
TTITLE5=Menuetto e Trio
TTITLE6=Finale: Presto
TTITLE7=Allegro assai
TTITLE8=Adagio
TTITLE9=Menuet e Trio.  Allegretto
TTITLE10=Finale. Presto - Adagio
EXTD=
EXTT0=
EXTT1=
EXTT2=
EXTT3=
EXTT4=
EXTT5=
EXTT6=
EXTT7=
EXTT8=
EXTT9=
EXTT10=
PLAYORDER=
